<svg xmlns="http://www.w3.org/2000/svg" width="400" height="400" viewBox="0 0 400 400" role="img" aria-label="Image not available">
  <rect width="400" height="400" fill="#f0f0f0"/>
  <rect x="0.5" y="0.5" width="399" height="399" fill="none" stroke="#e0e0e0"/>
  <g fill="#bdbdbd">
    <path d="M120 150h160a12 12 0 0 1 12 12v76a12 12 0 0 1-12 12H120a12 12 0 0 1-12-12v-76a12 12 0 0 1 12-12zm0 12v60l40-40 28 28 36-36 44 44v-56H120zm26 18a14 14 0 1 0 0.001 0z"/>
  </g>
  <text x="200" y="290" font-family="Arial, Helvetica, sans-serif" font-size="20" fill="#9e9e9e" text-anchor="middle">Tarix</text>
</svg>
